<svg width="512" height="512" viewBox="0 0 512 512" xmlns="http://www.w3.org/2000/svg">
  <rect width="512" height="512" rx="112" fill="#0a0a0a"/>
  <path d="M256 132
    C 292 196, 344 222, 344 302
    C 344 356, 304 396, 256 396
    C 208 396, 168 356, 168 302
    C 168 256, 194 238, 214 216
    C 220 248, 242 250, 246 220
    C 250 190, 240 162, 256 132 Z"
    fill="#f97316"/>
  <path d="M256 226
    C 276 256, 300 272, 300 312
    C 300 344, 278 368, 256 368
    C 234 368, 212 350, 212 318
    C 212 294, 228 286, 238 274
    C 242 290, 256 288, 256 270 Z"
    fill="#fbbf24"/>
</svg>
